<svg width="19" height="17" viewBox="0 0 19 17" fill="none" xmlns="http://www.w3.org/2000/svg">
<path d="M12.4464 0L16.2223 1.03207L18.2628 5.75331C18.3261 5.8999 18.3442 6.06209 18.3146 6.21902L18.0403 7.67239L15.0836 14.6632L13.4653 16.1627L8.51073 17L4.61497 16.7468L1.50529 15.257C1.22981 15.125 1.0096 14.9003 0.883303 14.6221L0.178965 13.0711C0.0610204 12.8114 0 12.5294 0 12.2441V8.85253C0 8.57738 0.0756808 8.30753 0.218762 8.07251L2.15765 4.88774L6.94532 0.913135C7.24955 0.660572 7.62182 0.503853 8.01508 0.462783L12.4464 0Z" fill="#3B3B3B"/>
<path d="M8.18128 1.80624L12.2187 1.38123L13.3875 5.31249L10.625 10.625L3.71875 11.9L1.91254 8.18124L3.71878 5.43994L8.18128 1.80624Z" fill="#FFC700"/>
<path d="M1.38125 9.56244L4.24995 15.4062L2.33746 14.3437L1.4875 12.7499L1.38125 9.56244Z" fill="#DF932D"/>
<path d="M10.5188 11.6875L10.0938 14.875L9.77504 15.7781L8.60629 15.9375L5.52505 15.725L4.1438 12.75L10.5188 11.6875Z" fill="#DF932D"/>
<path d="M13.2813 1.38123L15.3 2.01873L16.7875 5.31248L14.45 5.31245L13.2813 1.38123Z" fill="#DF932D"/>
<path d="M14.1313 6.375H17.1062L16.7875 7.65L15.0875 11.5812L11.05 13.7062L11.3688 11.2946L14.1313 6.375Z" fill="#DF932D"/>
<path d="M14.7688 12.8562L13.9188 14.3437L12.9626 15.0875L10.625 15.6187L10.9438 14.875L14.7688 12.8562Z" fill="#BB7921"/>
</svg>
