<svg width="18" height="16" viewBox="0 0 18 16" fill="none" xmlns="http://www.w3.org/2000/svg">
    <path d="M11.7143 0L15.2681 0.971363L17.1828 5.40165C17.2461 5.54824 17.2642 5.71043 17.2346 5.86736L16.9792 7.22108L14.1963 13.8007L12.6733 15.2119L8.0101 16L4.3435 15.7617L1.44183 14.3716C1.16635 14.2396 0.946143 14.0148 0.819843 13.7367L0.178965 12.3254C0.0610203 12.0656 0 11.7837 0 11.4984V8.35654C0 8.08139 0.0756808 7.81154 0.218762 7.57652L2.03073 4.60023L6.50933 0.882208C6.81356 0.629644 7.18582 0.472925 7.57909 0.431855L11.7143 0Z" fill="#3B3B3B"/>
    <path d="M7.70004 1.7L11.5 1.29999L12.6 5L10 10L3.50001 11.2L1.80005 7.7L3.50004 5.11996L7.70004 1.7Z" fill="#FFC700"/>
    <path d="M1.30001 8.99994L3.99996 14.5L2.19997 13.5L1.40001 11.9999L1.30001 8.99994Z" fill="#DF932D"/>
    <path d="M9.90001 11L9.50001 14L9.20001 14.85L8.10001 15L5.20002 14.8L3.90002 12L9.90001 11Z" fill="#DF932D"/>
    <path d="M12.5001 1.29999L14.4 1.89999L15.8 4.99999L13.6 4.99996L12.5001 1.29999Z" fill="#DF932D"/>
    <path d="M13.3 6H16.1L15.8 7.2L14.2 10.9L10.4 12.9L10.7 10.6302L13.3 6Z" fill="#DF932D"/>
    <path d="M13.9001 12.1L13.1 13.5L12.2001 14.2L10 14.7L10.3 14L13.9001 12.1Z" fill="#BB7921"/>
</svg>
