<svg width="20" height="18" viewBox="0 0 20 18" fill="none" xmlns="http://www.w3.org/2000/svg">
<path d="M12.3834 0.0448153C12.667 0.0151968 12.9536 0.0385754 13.2287 0.113759L16.384 0.976204C16.5839 1.03085 16.7494 1.17129 16.8357 1.3597L18.9021 5.86664C18.9928 6.06459 18.999 6.29097 18.9191 6.49354L15.6442 14.7979C15.5672 14.9931 15.4473 15.1686 15.2933 15.3112L14.1459 16.3744C13.9602 16.5464 13.7285 16.6605 13.4789 16.7027L9.01415 17.4572C8.84598 17.4856 8.67508 17.4944 8.50489 17.4834L5.11721 17.2632C4.87512 17.2475 4.63827 17.1855 4.41948 17.0807L1.53702 15.6997C1.26154 15.5678 1.04133 15.343 0.915033 15.0649L0.178965 13.4439C0.0610202 13.1842 0 12.9022 0 12.617V9.10053C0 8.82538 0.0756808 8.55553 0.218762 8.32051L2.03868 5.33116C2.15946 5.13276 2.31232 4.95578 2.49104 4.80741L7.62992 0.541237L12.3834 0.0448153Z" fill="#3B3B3B"/>
<path d="M8.23536 1.95589L12.7647 1.54407L13.8971 5.4687L10.9375 10.9375L4.01477 12.5588L1.64707 8.74997L3.70589 5.76468L8.23536 1.95589Z" fill="#F9C947"/>
<path d="M1.44121 10.397L4.73535 15.6471L2.26475 14.3088L1.44121 12.8676V10.397Z" fill="#D48A2A"/>
<path d="M10.8282 12.0312L10.3971 15.0294L9.88245 15.8529L8.85295 16.0588L5.97063 15.8529L4.42651 13.4853L10.8282 12.0312Z" fill="#D48A2A"/>
<path d="M13.6719 1.64703L15.6471 2.16174L17.1912 5.46874L14.875 5.4687L13.6719 1.64703Z" fill="#D48A2A"/>
<path d="M14.5469 6.5625H17.2941L15.3382 11.7353L11.4265 13.5882L11.7031 11.6268L14.5469 6.5625Z" fill="#D48A2A"/>
<path d="M14.9265 12.9706L14.2059 14.4118L13.5883 15.0294L11.2206 15.6471L11.4265 14.5147L14.9265 12.9706Z" fill="#C16A29"/>
</svg>
