<svg width="25" height="25" viewBox="0 0 25 25" fill="none" xmlns="http://www.w3.org/2000/svg">
<rect width="25" height="25" fill="#C8CB40"/>
<path d="M4.61736 12.561H7.49036V13.978H4.61736V12.561ZM13.1191 16.5H8.15306V15.291H9.99906V10.169H8.14006V9.22C8.50406 9.17667 8.93739 9.07267 9.44006 8.908C9.94273 8.73467 10.3717 8.53533 10.7271 8.31H11.4421V15.291H13.1191V16.5ZM15.9783 8.154C16.637 8.154 17.17 8.33167 17.5773 8.687C17.9847 9.03367 18.1883 9.56667 18.1883 10.286C18.1883 10.7453 18.0887 11.196 17.8893 11.638C17.6987 12.08 17.4647 12.483 17.1873 12.847C16.9187 13.2023 16.585 13.601 16.1863 14.043L15.7183 14.589C15.5537 14.7883 15.4193 14.979 15.3153 15.161H18.2273V16.5H13.5213V16.214C13.5213 15.7807 13.6037 15.3863 13.7683 15.031C13.907 14.693 14.0847 14.381 14.3013 14.095C14.5267 13.8003 14.8257 13.445 15.1983 13.029C15.5363 12.6477 15.8007 12.3313 15.9913 12.08C16.1907 11.8287 16.3553 11.5513 16.4853 11.248C16.624 10.936 16.6933 10.611 16.6933 10.273C16.6933 10.039 16.6327 9.83533 16.5113 9.662C16.39 9.48 16.195 9.389 15.9263 9.389C15.649 9.389 15.441 9.506 15.3023 9.74C15.1723 9.974 15.1073 10.273 15.1073 10.637V11.118H13.6253C13.6167 11.092 13.608 11.04 13.5993 10.962C13.5907 10.8753 13.5863 10.7713 13.5863 10.65C13.5863 9.818 13.8117 9.194 14.2623 8.778C14.7217 8.362 15.2937 8.154 15.9783 8.154Z" fill="white"/>
</svg>
