<svg width="25" height="25" viewBox="0 0 25 25" fill="none" xmlns="http://www.w3.org/2000/svg">
<rect width="25" height="25" fill="#8ECB40"/>
<path d="M4.61736 12.561H7.49036V13.978H4.61736V12.561ZM13.1191 16.5H8.15306V15.291H9.99906V10.169H8.14006V9.22C8.50406 9.17667 8.93739 9.07267 9.44006 8.908C9.94273 8.73467 10.3717 8.53533 10.7271 8.31H11.4421V15.291H13.1191V16.5ZM15.8613 8.154C16.3727 8.154 16.8017 8.284 17.1483 8.544C17.495 8.79533 17.7593 9.233 17.9413 9.857C18.132 10.4723 18.2273 11.3217 18.2273 12.405C18.2273 13.4797 18.132 14.329 17.9413 14.953C17.7593 15.5683 17.495 16.006 17.1483 16.266C16.8017 16.5173 16.3727 16.643 15.8613 16.643C15.3413 16.643 14.908 16.5173 14.5613 16.266C14.2147 16.0147 13.9503 15.577 13.7683 14.953C13.5863 14.329 13.4953 13.4797 13.4953 12.405C13.4953 11.3217 13.5863 10.468 13.7683 9.844C13.9503 9.22 14.2147 8.78233 14.5613 8.531C14.908 8.27967 15.3413 8.154 15.8613 8.154ZM15.8613 9.363C15.6187 9.363 15.4323 9.454 15.3023 9.636C15.181 9.818 15.0943 10.0953 15.0423 10.468C14.999 10.8407 14.9773 11.3477 14.9773 11.989V12.821C14.9773 13.4537 14.999 13.9563 15.0423 14.329C15.0943 14.7017 15.181 14.979 15.3023 15.161C15.4323 15.343 15.6187 15.434 15.8613 15.434C16.0953 15.434 16.273 15.343 16.3943 15.161C16.5243 14.9703 16.611 14.693 16.6543 14.329C16.7063 13.9563 16.7323 13.4537 16.7323 12.821V11.989C16.7323 11.3477 16.7063 10.8407 16.6543 10.468C16.611 10.0953 16.5243 9.818 16.3943 9.636C16.273 9.454 16.0953 9.363 15.8613 9.363Z" fill="white"/>
</svg>
