<svg width="25" height="25" viewBox="0 0 25 25" fill="none" xmlns="http://www.w3.org/2000/svg">
<rect width="25" height="25" fill="#CB9C40"/>
<path d="M4.61736 12.561H7.49036V13.978H4.61736V12.561ZM13.1191 16.5H8.15306V15.291H9.99906V10.169H8.14006V9.22C8.50406 9.17667 8.93739 9.07267 9.44006 8.908C9.94273 8.73467 10.3717 8.53533 10.7271 8.31H11.4421V15.291H13.1191V16.5ZM15.8613 8.154C16.5893 8.154 17.1267 8.39667 17.4733 8.882C17.8287 9.36733 18.0063 10.013 18.0063 10.819H16.5373C16.5373 10.3337 16.481 9.96967 16.3683 9.727C16.2643 9.48433 16.078 9.363 15.8093 9.363C15.5753 9.363 15.3977 9.467 15.2763 9.675C15.1637 9.87433 15.0857 10.1517 15.0423 10.507C15.0077 10.8623 14.9817 11.3607 14.9643 12.002C15.103 11.794 15.285 11.6337 15.5103 11.521C15.7357 11.4083 15.9783 11.352 16.2383 11.352C16.8797 11.352 17.3693 11.5947 17.7073 12.08C18.054 12.5653 18.2273 13.2023 18.2273 13.991C18.2273 14.5197 18.1277 14.9877 17.9283 15.395C17.7377 15.7937 17.469 16.1013 17.1223 16.318C16.7843 16.5347 16.3987 16.643 15.9653 16.643C15.1507 16.643 14.5353 16.3397 14.1193 15.733C13.7033 15.1263 13.4953 14.095 13.4953 12.639C13.4953 11.001 13.6947 9.844 14.0933 9.168C14.492 8.492 15.0813 8.154 15.8613 8.154ZM15.9003 12.522C15.6317 12.522 15.4237 12.6563 15.2763 12.925C15.129 13.185 15.0553 13.5403 15.0553 13.991C15.0553 14.4157 15.129 14.7623 15.2763 15.031C15.4237 15.2997 15.6317 15.434 15.9003 15.434C16.1777 15.434 16.3857 15.304 16.5243 15.044C16.6717 14.7753 16.7453 14.4243 16.7453 13.991C16.7453 13.5403 16.676 13.185 16.5373 12.925C16.3987 12.6563 16.1863 12.522 15.9003 12.522Z" fill="white"/>
</svg>
