<svg width="25" height="25" viewBox="0 0 25 25" fill="none" xmlns="http://www.w3.org/2000/svg">
<rect width="25" height="25" fill="#CB4040"/>
<path d="M4.61736 12.561H7.49036V13.978H4.61736V12.561ZM13.1191 16.5H8.15306V15.291H9.99906V10.169H8.14006V9.22C8.50406 9.17667 8.93739 9.07267 9.44006 8.908C9.94273 8.73467 10.3717 8.53533 10.7271 8.31H11.4421V15.291H13.1191V16.5ZM15.8613 8.154C16.5547 8.154 17.092 8.37067 17.4733 8.804C17.8633 9.23733 18.0583 9.78333 18.0583 10.442C18.0583 10.832 17.9803 11.1917 17.8243 11.521C17.677 11.8417 17.456 12.1017 17.1613 12.301C17.872 12.6477 18.2273 13.2977 18.2273 14.251C18.2273 14.953 18.028 15.5293 17.6293 15.98C17.2393 16.422 16.65 16.643 15.8613 16.643C15.064 16.643 14.4703 16.422 14.0803 15.98C13.6903 15.5293 13.4953 14.953 13.4953 14.251C13.4953 13.2977 13.842 12.6477 14.5353 12.301C14.2493 12.1017 14.0327 11.8417 13.8853 11.521C13.738 11.2003 13.6643 10.8407 13.6643 10.442C13.6643 9.78333 13.855 9.23733 14.2363 8.804C14.6177 8.37067 15.1593 8.154 15.8613 8.154ZM15.8613 9.35C15.6187 9.35 15.4323 9.44967 15.3023 9.649C15.181 9.84833 15.1203 10.143 15.1203 10.533C15.1203 10.923 15.181 11.2177 15.3023 11.417C15.4323 11.6163 15.6187 11.716 15.8613 11.716C16.0953 11.716 16.2773 11.6163 16.4073 11.417C16.5373 11.2177 16.6023 10.923 16.6023 10.533C16.6023 10.143 16.5373 9.84833 16.4073 9.649C16.2773 9.44967 16.0953 9.35 15.8613 9.35ZM15.8613 12.899C15.5667 12.899 15.3413 13.0117 15.1853 13.237C15.038 13.4537 14.9643 13.77 14.9643 14.186C14.9643 14.602 15.038 14.9183 15.1853 15.135C15.3413 15.343 15.5667 15.447 15.8613 15.447C16.1473 15.447 16.364 15.343 16.5113 15.135C16.6673 14.9183 16.7453 14.602 16.7453 14.186C16.7453 13.7787 16.6673 13.4623 16.5113 13.237C16.364 13.0117 16.1473 12.899 15.8613 12.899Z" fill="white"/>
</svg>
