<svg width="25" height="25" viewBox="0 0 25 25" fill="none" xmlns="http://www.w3.org/2000/svg">
<rect width="25" height="25" fill="#8E8E8E"/>
<path d="M12.6109 8.154C13.3129 8.154 13.8719 8.35333 14.2879 8.752C14.7039 9.142 14.9119 9.65333 14.9119 10.286C14.9119 10.806 14.8382 11.2177 14.6909 11.521C14.5436 11.8243 14.3312 12.1363 14.0539 12.457C13.8459 12.6997 13.6899 12.9163 13.5859 13.107C13.4819 13.2977 13.4299 13.5317 13.4299 13.809V14.147H11.9219V13.64C11.9219 13.3193 11.9782 13.0507 12.0909 12.834C12.2122 12.6173 12.3899 12.3703 12.6239 12.093C12.8666 11.7983 13.0486 11.534 13.1699 11.3C13.2912 11.066 13.3519 10.7713 13.3519 10.416C13.3519 10.1993 13.2912 9.98267 13.1699 9.766C13.0572 9.54933 12.8406 9.441 12.5199 9.441C12.1732 9.441 11.9306 9.571 11.7919 9.831C11.6619 10.091 11.5969 10.377 11.5969 10.689C11.5969 10.7757 11.5969 10.8493 11.5969 10.91C11.6056 10.962 11.6099 10.9967 11.6099 11.014H10.1019C10.1019 10.988 10.0976 10.936 10.0889 10.858C10.0802 10.7713 10.0759 10.6847 10.0759 10.598C10.0759 9.88733 10.2926 9.30233 10.7259 8.843C11.1592 8.38367 11.7876 8.154 12.6109 8.154ZM11.8569 14.862H13.5079V16.5H11.8569V14.862Z" fill="white"/>
</svg>
