<svg width="25" height="25" viewBox="0 0 25 25" fill="none" xmlns="http://www.w3.org/2000/svg">
<rect width="25" height="25" fill="#5AC164"/>
<path d="M10.4919 9.662V16.5H8.97086V9.662H6.94286V8.31H12.5329V9.662H10.4919ZM13.4421 16.5V8.31H16.3801C17.2034 8.31 17.8361 8.53533 18.2781 8.986C18.7201 9.43667 18.9411 10.0303 18.9411 10.767C18.9411 11.5383 18.7071 12.158 18.2391 12.626C17.7711 13.094 17.1514 13.328 16.3801 13.328H14.9761V16.5H13.4421ZM16.2111 11.976C16.5837 11.976 16.8697 11.8677 17.0691 11.651C17.2684 11.4343 17.3681 11.1397 17.3681 10.767C17.3681 10.429 17.2641 10.1603 17.0561 9.961C16.8567 9.76167 16.5751 9.662 16.2111 9.662H14.9761V11.976H16.2111Z" fill="white"/>
</svg>
