<svg id="Layer_1" data-name="Layer 1" xmlns="http://www.w3.org/2000/svg" viewBox="0 0 500 500"><defs><style>.cls-1{fill:#c91172;}.cls-2{fill:#e2e2e2;}.cls-3{fill:#aa0f68;}.cls-4{fill:#bcbcbc;}.cls-5{fill:none;stroke:#000;stroke-linecap:round;stroke-linejoin:round;stroke-width:15px;}.cls-6{fill:#679b16;}.cls-7{fill:#74bc17;}</style></defs><title>turnip</title><path class="cls-1" d="M226.38,273.36C99.51,146.5-23.72,229.14,15.83,350.44c14,42.9-4.27,94.51-6.78,116.15-1.5,12.89,11.21,25.59,24.1,24.1,21.64-2.51,73.25-20.78,116.15-6.79C270.6,523.46,353.24,400.23,226.38,273.36Z"/><path class="cls-2" d="M129.49,370.25C91.11,331.86,47.27,306.7,8.57,297.7c-1.06,16.25,1.16,34,7.26,52.74,14,42.9-4.27,94.51-6.78,116.15-1.5,12.89,11.21,25.59,24.1,24.1,21.64-2.51,73.25-20.78,116.15-6.79C168,490,185.79,492.23,202,491.17,193,452.47,167.88,408.63,129.49,370.25Z"/><path class="cls-3" d="M259.32,312.61c37.87,94.14-34,165.3-130.33,133.9-42.9-14-94.51,4.28-116.15,6.79-.48.05-1,.08-1.44.1-1.07,5.11-1.93,9.57-2.35,13.19-1.5,12.89,11.21,25.59,24.1,24.1,21.64-2.51,73.25-20.78,116.15-6.79C258,519.35,335.64,424.08,259.32,312.61Z"/><path class="cls-4" d="M155,485.65c1.3.37,2.59.72,3.88,1.06l.65.17c1.45.37,2.9.72,4.34,1l1.22.27c1.15.25,2.29.48,3.43.7l1.06.21c1.39.26,2.77.49,4.14.7L175,490l3.11.42,1.33.16q2,.23,3.93.39l1.26.09c1,.08,1.93.14,2.88.19l1.5.07c1.22.05,2.44.09,3.64.1h1.29c.93,0,1.85,0,2.77,0l1.58,0c.94,0,1.87-.08,2.8-.13l1-.05a196.88,196.88,0,0,0-13.36-38.06c-18.06,2.28-38.27.39-59.68-6.6-42.9-14-94.51,4.28-116.15,6.79-.48.05-1,.08-1.44.1v0c-.12.56-.23,1.11-.35,1.65-.06.3-.11.58-.17.87-.14.65-.26,1.29-.39,1.91-.09.46-.18.92-.26,1.37s-.12.6-.17.9c-.11.62-.23,1.23-.33,1.83,0,.14-.05.28-.07.41-.1.63-.2,1.23-.29,1.81,0,.18,0,.36-.07.53-.1.64-.18,1.28-.25,1.88a19.92,19.92,0,0,0,2.33,11.6c.19.36.38.71.59,1.06a24.45,24.45,0,0,0,2.89,3.9c.55.6,1.13,1.18,1.73,1.73a24.45,24.45,0,0,0,3.9,2.89c.35.2.7.4,1.06.59a19.92,19.92,0,0,0,11.6,2.33c6.09-.7,14.54-2.66,24.51-4.79,4.43-.94,9.16-1.93,14.11-2.85,2.47-.46,5-.91,7.58-1.33l3.9-.61a215.72,215.72,0,0,1,24.46-2.34c13.92-.46,28.18.76,41.59,5.13,1.51.5,3,1,4.51,1.4Z"/><path class="cls-5" d="M226.38,273.36C99.51,146.5-23.72,229.14,15.83,350.44c14,42.9-4.27,94.51-6.78,116.15-1.5,12.89,11.21,25.59,24.1,24.1,21.64-2.51,73.25-20.78,116.15-6.79C270.6,523.46,353.24,400.23,226.38,273.36Z"/><path class="cls-5" d="M226.38,273.36C99.51,146.5-23.72,229.14,15.83,350.44c14,42.9-4.27,94.51-6.78,116.15-1.5,12.89,11.21,25.59,24.1,24.1,21.64-2.51,73.25-20.78,116.15-6.79C270.6,523.46,353.24,400.23,226.38,273.36Z"/><path class="cls-6" d="M234.29,11.23C226,15.41,218,23.16,215.11,37.43c0,0-31.15,4.85-33,35.73,0,0-36.32,17.62-10.38,59.17l.26,0C163.47,162.12,191.24,177,191.24,177c-2,14.41,2.91,24.37,9.39,31.09a38.82,38.82,0,0,0,45.15,7.72c8.33-4.19,16.31-11.94,19.17-26.21,0,0,31.16-4.84,33-35.73l.26,0c38.27-30.57,9.86-59.25,9.86-59.25C316.6,65,288.82,50,288.82,50c2-14.41-2.91-24.37-9.38-31.09A38.8,38.8,0,0,0,234.29,11.23Z"/><line class="cls-5" x1="208.01" y1="252" x2="236.14" y2="136.33"/><path class="cls-5" d="M234.29,11.23C226,15.41,218,23.16,215.11,37.43c0,0-31.15,4.85-33,35.73,0,0-36.32,17.62-10.38,59.17l.26,0C163.47,162.12,191.24,177,191.24,177c-2,14.41,2.91,24.37,9.39,31.09a38.82,38.82,0,0,0,45.15,7.72c8.33-4.19,16.31-11.94,19.17-26.21,0,0,31.16-4.84,33-35.73l.26,0c38.27-30.57,9.86-59.25,9.86-59.25C316.6,65,288.82,50,288.82,50c2-14.41-2.91-24.37-9.38-31.09A38.8,38.8,0,0,0,234.29,11.23Z"/><path class="cls-6" d="M488.51,265.45c-4.18,8.34-11.93,16.32-26.2,19.18,0,0-4.85,31.15-35.74,33,0,0-17.62,36.33-59.17,10.39l0-.26c-29.74,8.53-44.66-19.25-44.66-19.25-14.41,2.05-24.37-2.9-31.09-9.38A38.8,38.8,0,0,1,283.89,254c4.18-8.33,11.93-16.31,26.21-19.17,0,0,4.84-31.16,35.73-33l-.05-.27c30.58-38.26,59.26-9.85,59.26-9.85,29.75-8.54,44.66,19.24,44.66,19.24,14.42-2,24.38,2.91,31.09,9.38A38.8,38.8,0,0,1,488.51,265.45Z"/><line class="cls-5" x1="247.74" y1="291.73" x2="363.41" y2="263.6"/><path class="cls-5" d="M488.51,265.45c-4.18,8.34-11.93,16.32-26.2,19.18,0,0-4.85,31.15-35.74,33,0,0-17.62,36.33-59.17,10.39l0-.26c-29.74,8.53-44.66-19.25-44.66-19.25-14.41,2.05-24.37-2.9-31.09-9.38A38.8,38.8,0,0,1,283.89,254c4.18-8.33,11.93-16.31,26.21-19.17,0,0,4.84-31.16,35.73-33l-.05-.27c30.58-38.26,59.26-9.85,59.26-9.85,29.75-8.54,44.66,19.24,44.66,19.24,14.42-2,24.38,2.91,31.09,9.38A38.8,38.8,0,0,1,488.51,265.45Z"/><path class="cls-7" d="M416.87,115.26c1.4,9.22-.31,20.21-10.31,30.79,0,0,14.05,28.23-10.1,47.57,0,0,6.61,39.83-42.29,42.67l-.19-.19c-19.34,24.15-47.57,10.1-47.57,10.1-10.58,10-21.57,11.71-30.79,10.31a38.8,38.8,0,0,1-32.39-32.39c-1.4-9.22.31-20.21,10.31-30.79,0,0-14-28.23,10.1-47.57l-.19-.19c2.84-48.9,42.67-42.29,42.67-42.29,19.34-24.15,47.56-10.1,47.56-10.1,10.59-10,21.58-11.71,30.8-10.31A38.81,38.81,0,0,1,416.87,115.26Z"/><line class="cls-5" x1="227.87" y1="271.87" x2="313.7" y2="186.04"/><path class="cls-5" d="M416.87,115.26c1.4,9.22-.31,20.21-10.31,30.79,0,0,14.05,28.23-10.1,47.57,0,0,6.61,39.83-42.29,42.67l-.19-.19c-19.34,24.15-47.57,10.1-47.57,10.1-10.58,10-21.57,11.71-30.79,10.31a38.8,38.8,0,0,1-32.39-32.39c-1.4-9.22.31-20.21,10.31-30.79,0,0-14-28.23,10.1-47.57l-.19-.19c2.84-48.9,42.67-42.29,42.67-42.29,19.34-24.15,47.56-10.1,47.56-10.1,10.59-10,21.58-11.71,30.8-10.31A38.81,38.81,0,0,1,416.87,115.26Z"/></svg>